<?xml version="1.0" encoding="UTF-8" standalone="no"?>
<svg
   xmlns:dc="http://purl.org/dc/elements/1.1/"
   xmlns:cc="http://creativecommons.org/ns#"
   xmlns:rdf="http://www.w3.org/1999/02/22-rdf-syntax-ns#"
   xmlns:svg="http://www.w3.org/2000/svg"
   xmlns="http://www.w3.org/2000/svg"
   xmlns:sodipodi="http://sodipodi.sourceforge.net/DTD/sodipodi-0.dtd"
   xmlns:inkscape="http://www.inkscape.org/namespaces/inkscape"
   aria-hidden="true"
   focusable="false"
   data-prefix="fas"
   data-icon="chevron-circle-right"
   class="svg-inline--fa fa-chevron-circle-right fa-w-16"
   role="img"
   viewBox="0 0 508 508"
   version="1.1"
   id="svg4"
   sodipodi:docname="arrow.svg"
   inkscape:version="0.92.5 (2060ec1f9f, 2020-04-08)"
   width="508"
   height="508">
  <title
     id="title816">Arrow Right</title>
  <metadata
     id="metadata10">
    <rdf:RDF>
      <cc:Work
         rdf:about="">
        <dc:format>image/svg+xml</dc:format>
        <dc:type
           rdf:resource="http://purl.org/dc/dcmitype/StillImage" />
        <dc:title>Arrow Right</dc:title>
        <dc:date>2020-11-29</dc:date>
        <dc:creator>
          <cc:Agent>
            <dc:title>Manuel Bieling</dc:title>
          </cc:Agent>
        </dc:creator>
        <dc:publisher>
          <cc:Agent>
            <dc:title>Manuel Bieling</dc:title>
          </cc:Agent>
        </dc:publisher>
      </cc:Work>
    </rdf:RDF>
  </metadata>
  <defs
     id="defs8" />
  <sodipodi:namedview
     pagecolor="#ffffff"
     bordercolor="#666666"
     borderopacity="1"
     objecttolerance="10"
     gridtolerance="10"
     guidetolerance="10"
     inkscape:pageopacity="0"
     inkscape:pageshadow="2"
     inkscape:window-width="1280"
     inkscape:window-height="751"
     id="namedview6"
     showgrid="false"
     inkscape:zoom="0.96377841"
     inkscape:cx="316.15033"
     inkscape:cy="234.64406"
     inkscape:window-x="0"
     inkscape:window-y="25"
     inkscape:window-maximized="1"
     inkscape:current-layer="svg4" />
  <path
     style="fill:#000000;fill-opacity:1;stroke:#000000;stroke-width:1px;stroke-linecap:butt;stroke-linejoin:miter;stroke-opacity:1"
     d="M 193.25424,73.932203 99.9661,178.0678 188.91525,256.16949 97.79661,371.15254 227.9661,438.40678 412.37288,254 219.28814,56.576271 Z"
     id="path812"
     inkscape:connector-curvature="0" />
  <path
     d="M 254,6 C 391,6 502,117 502,254 502,391 391,502 254,502 117,502 6,391 6,254 6,117 117,6 254,6 Z M 367.9,237 232.4,101.5 c -9.4,-9.4 -24.6,-9.4 -33.9,0 l -17,17 c -9.4,9.4 -9.4,24.6 0,33.9 L 283.1,254 181.5,355.6 c -9.4,9.4 -9.4,24.6 0,33.9 l 17,17 c 9.4,9.4 24.6,9.4 33.9,0 L 367.9,271 c 9.4,-9.4 9.4,-24.6 0,-34 z"
     id="path2"
     style="fill:#ffffff;fill-opacity:1;stroke:#000000;stroke-width:12;stroke-miterlimit:4;stroke-dasharray:none;stroke-opacity:1"
     inkscape:connector-curvature="0" />
</svg>
